<svg width="32" height="32" viewBox="0 0 32 32" fill="none" xmlns="http://www.w3.org/2000/svg">
<path fill-rule="evenodd" clip-rule="evenodd" d="M15.9998 5.33366C12.3179 5.33366 9.33317 8.31843 9.33317 12.0003C9.33317 15.7175 11.4821 21.1567 15.9998 26.0741C20.5176 21.1567 22.6665 15.7175 22.6665 12.0003C22.6665 8.31843 19.6817 5.33366 15.9998 5.33366ZM6.6665 12.0003C6.6665 6.84567 10.8452 2.66699 15.9998 2.66699C21.1545 2.66699 25.3332 6.84567 25.3332 12.0003C25.3332 16.8699 22.4472 23.4385 16.9426 28.9431C16.4219 29.4638 15.5777 29.4638 15.057 28.9431C9.55243 23.4385 6.6665 16.8699 6.6665 12.0003Z" fill="#A0ABBB"/>
<path fill-rule="evenodd" clip-rule="evenodd" d="M15.9998 13.3337C16.7362 13.3337 17.3332 12.7367 17.3332 12.0003C17.3332 11.2639 16.7362 10.667 15.9998 10.667C15.2635 10.667 14.6665 11.2639 14.6665 12.0003C14.6665 12.7367 15.2635 13.3337 15.9998 13.3337ZM15.9998 16.0003C18.209 16.0003 19.9998 14.2095 19.9998 12.0003C19.9998 9.79119 18.209 8.00033 15.9998 8.00033C13.7907 8.00033 11.9998 9.79119 11.9998 12.0003C11.9998 14.2095 13.7907 16.0003 15.9998 16.0003Z" fill="#A0ABBB"/>
</svg>
