<svg width="32" height="32" viewBox="0 0 32 32" fill="none" xmlns="http://www.w3.org/2000/svg">
<path fill-rule="evenodd" clip-rule="evenodd" d="M6.6665 5.33301C4.45737 5.33301 2.6665 7.12387 2.6665 9.33301V22.6663C2.6665 24.8755 4.45736 26.6663 6.6665 26.6663H25.3332C27.5423 26.6663 29.3332 24.8755 29.3332 22.6663V9.33301C29.3332 7.12387 27.5423 5.33301 25.3332 5.33301H6.6665ZM6.43386 8.0199C6.5094 8.00661 6.58714 7.99967 6.6665 7.99967H25.3332C25.4125 7.99967 25.4903 8.00661 25.5658 8.01991L15.9999 14.3972L6.43386 8.0199ZM5.33317 10.491V22.6663C5.33317 23.4027 5.93012 23.9997 6.6665 23.9997H25.3332C26.0695 23.9997 26.6665 23.4027 26.6665 22.6663V10.4911L16.7395 17.1091C16.2916 17.4077 15.7081 17.4077 15.2603 17.1091L5.33317 10.491Z" fill="#A0ABBB"/>
</svg>
