<svg width="32" height="32" viewBox="0 0 32 32" fill="none" xmlns="http://www.w3.org/2000/svg">
<path d="M10.6665 28V25.3333H5.33317C4.59984 25.3333 3.97228 25.0724 3.4505 24.5507C2.92873 24.0289 2.66739 23.4009 2.6665 22.6667V6.66667C2.6665 5.93333 2.92784 5.30578 3.4505 4.784C3.97317 4.26222 4.60073 4.00089 5.33317 4H26.6665C27.3998 4 28.0278 4.26133 28.5505 4.784C29.0732 5.30667 29.3341 5.93422 29.3332 6.66667V22.6667C29.3332 23.4 29.0723 24.028 28.5505 24.5507C28.0287 25.0733 27.4007 25.3342 26.6665 25.3333H21.3332V28H10.6665Z" fill="black" fill-opacity="0.7"/>
</svg>
