<svg width="36" height="36" viewBox="0 0 36 36" fill="none" xmlns="http://www.w3.org/2000/svg">
<path d="M12 12H15V7.5H12V12ZM12 25.5H15V18H12V25.5ZM9 33C8.175 33 7.469 32.7065 6.882 32.1195C6.295 31.5325 6.001 30.826 6 30V16.5H30V30C30 30.825 29.7065 31.5315 29.1195 32.1195C28.5325 32.7075 27.826 33.001 27 33H9ZM6 13.5V6C6 5.175 6.294 4.469 6.882 3.882C7.47 3.295 8.176 3.001 9 3H27C27.825 3 28.5315 3.294 29.1195 3.882C29.7075 4.47 30.001 5.176 30 6V13.5H6Z" fill="black" fill-opacity="0.7"/>
</svg>
