<svg width="45" height="45" viewBox="0 0 45 45" fill="none" xmlns="http://www.w3.org/2000/svg">
<path d="M21.0795 36.1301L21.0768 36.1276C16.2107 31.7151 12.3272 28.184 9.63775 24.8935C6.96946 21.6291 5.67857 18.8378 5.67857 15.9375C5.67857 11.2112 9.35032 7.55357 14.0625 7.55357C16.742 7.55357 19.3456 8.81092 21.0365 10.781L22.5 12.4862L23.9635 10.781C25.6544 8.81092 28.258 7.55357 30.9375 7.55357C35.6497 7.55357 39.3214 11.2112 39.3214 15.9375C39.3214 18.8378 38.0305 21.6291 35.3622 24.8935C32.6728 28.184 28.7893 31.7151 23.9232 36.1276L23.9205 36.1301L22.5 37.4232L21.0795 36.1301Z" stroke="#DD0F0F" stroke-width="3.85714"/>
</svg>
