<svg width="27" height="27" viewBox="0 0 27 27" fill="none" xmlns="http://www.w3.org/2000/svg">
<path d="M14.0625 7.875C14.0625 6.62625 15.0638 5.625 16.3125 5.625H20.25C21.4875 5.625 22.5 6.6375 22.5 7.875V10.305C21.195 10.7662 20.25 12.0038 20.25 13.4663V15.75H14.0625V7.875ZM6.75 13.455V15.75H12.9375V7.875C12.9375 6.62625 11.9362 5.625 10.6875 5.625H6.75C5.5125 5.625 4.5 6.6375 4.5 7.875V10.2937C5.805 10.755 6.75 12.0037 6.75 13.455ZM23.2425 11.2837C22.14 11.4637 21.375 12.51 21.375 13.635V16.875H5.625V13.5C5.625 12.9033 5.38795 12.331 4.96599 11.909C4.54403 11.4871 3.97174 11.25 3.375 11.25C2.77826 11.25 2.20597 11.4871 1.78401 11.909C1.36205 12.331 1.125 12.9033 1.125 13.5V19.125C1.125 20.3625 2.1375 21.375 3.375 21.375V23.625H5.625V21.375H21.375V23.625H23.625V21.375C24.8625 21.375 25.875 20.3625 25.875 19.125V13.5C25.875 12.1388 24.6488 11.0475 23.2425 11.2837Z" fill="black" fill-opacity="0.7"/>
</svg>
