<svg width="36" height="36" viewBox="0 0 36 36" fill="none" xmlns="http://www.w3.org/2000/svg">
<g clip-path="url(#clip0_815_1598)">
<path fill-rule="evenodd" clip-rule="evenodd" d="M21 4.5C21.7569 4.49976 22.4858 4.78561 23.0408 5.30025C23.5958 5.81488 23.9357 6.52027 23.9925 7.275L24 7.5V9.0825L29.4615 10.5465C30.1928 10.7422 30.823 11.2072 31.2259 11.8482C31.6287 12.4891 31.7743 13.2587 31.6335 14.0025L31.5825 14.22L27.7005 28.71C27.5045 29.441 27.0394 30.0709 26.3984 30.4734C25.7575 30.876 24.9881 31.0214 24.2445 30.8805L24.027 30.831L23.1465 30.5955C22.6635 31.0905 22.008 31.4205 21.2775 31.488L21 31.5H7.5C6.74314 31.5002 6.01415 31.2144 5.45918 30.6998C4.90421 30.1851 4.56427 29.4797 4.5075 28.725L4.5 28.5V7.5C4.49976 6.74314 4.78561 6.01415 5.30025 5.45918C5.81488 4.90421 6.52027 4.56427 7.275 4.5075L7.5 4.5H21ZM21 7.5H7.5V28.5H21V7.5ZM24 12.189V27.7185L24.8025 27.933L28.686 13.443L24 12.189Z" fill="black" fill-opacity="0.7"/>
</g>
<defs>
<clipPath id="clip0_815_1598">
<rect width="36" height="36" fill="white"/>
</clipPath>
</defs>
</svg>
