<svg width="20" height="20" viewBox="0 0 20 20" fill="none" xmlns="http://www.w3.org/2000/svg">
<path d="M10.0002 15.97L5.70524 17.885C5.54485 17.9565 5.36844 17.9846 5.19376 17.9663C5.01908 17.9481 4.8523 17.8841 4.71018 17.7809C4.56806 17.6777 4.45563 17.5389 4.38419 17.3785C4.31275 17.2181 4.28483 17.0416 4.30324 16.867L4.79724 12.19L1.65024 8.69796C1.53285 8.56752 1.45186 8.40849 1.41539 8.23684C1.37892 8.06519 1.38826 7.88697 1.44247 7.72008C1.49669 7.55318 1.59386 7.40349 1.72424 7.28604C1.85462 7.16859 2.01361 7.08751 2.18524 7.05096L6.78524 6.07496L9.13424 1.99996C9.22201 1.84795 9.34825 1.72172 9.50026 1.63396C9.65227 1.5462 9.82471 1.5 10.0002 1.5C10.1758 1.5 10.3482 1.5462 10.5002 1.63396C10.6522 1.72172 10.7785 1.84795 10.8662 1.99996L13.2162 6.07396L17.8162 7.04996C17.9879 7.08651 18.1469 7.16759 18.2772 7.28504C18.4076 7.40249 18.5048 7.55218 18.559 7.71907C18.6132 7.88597 18.6226 8.06419 18.5861 8.23584C18.5496 8.40749 18.4686 8.56652 18.3512 8.69696L15.2032 12.191L15.6972 16.867C15.7156 17.0416 15.6877 17.2181 15.6163 17.3785C15.5448 17.5389 15.4324 17.6777 15.2903 17.7809C15.1482 17.8841 14.9814 17.9481 14.8067 17.9663C14.632 17.9846 14.4556 17.9565 14.2952 17.885L10.0002 15.97Z" fill="#3D52A0"/>
</svg>
