<svg width="32" height="32" viewBox="0 0 32 32" fill="none" xmlns="http://www.w3.org/2000/svg">
<path fill-rule="evenodd" clip-rule="evenodd" d="M6.4001 13.1998C6.82444 13.1998 7.23141 13.0312 7.53147 12.7312C7.83153 12.4311 8.0001 12.0242 8.0001 11.5998C8.0001 11.1755 7.83153 10.7685 7.53147 10.4684C7.23141 10.1684 6.82444 9.9998 6.4001 9.9998C5.97575 9.9998 5.56878 10.1684 5.26873 10.4684C4.96867 10.7685 4.8001 11.1755 4.8001 11.5998C4.8001 12.0242 4.96867 12.4311 5.26873 12.7312C5.56878 13.0312 5.97575 13.1998 6.4001 13.1998ZM6.4001 16.3998C7.67314 16.3998 8.89404 15.8941 9.79421 14.9939C10.6944 14.0937 11.2001 12.8728 11.2001 11.5998C11.2001 10.3268 10.6944 9.10587 9.79421 8.20569C8.89404 7.30552 7.67314 6.7998 6.4001 6.7998C5.12706 6.7998 3.90616 7.30552 3.00599 8.20569C2.10581 9.10587 1.6001 10.3268 1.6001 11.5998C1.6001 12.8728 2.10581 14.0937 3.00599 14.9939C3.90616 15.8941 5.12706 16.3998 6.4001 16.3998Z" fill="black" fill-opacity="0.7"/>
<path fill-rule="evenodd" clip-rule="evenodd" d="M6.47988 17.5998C5.84336 17.5998 5.23291 17.8527 4.78283 18.3027C4.33274 18.7528 4.07988 19.3633 4.07988 19.9998V22.3998C4.07988 22.8242 3.91131 23.2311 3.61125 23.5312C3.3112 23.8312 2.90423 23.9998 2.47988 23.9998C2.05554 23.9998 1.64857 23.8312 1.34851 23.5312C1.04845 23.2311 0.879883 22.8242 0.879883 22.3998V19.9998C0.879883 18.5146 1.46988 17.0902 2.52008 16.04C3.57029 14.9898 4.99467 14.3998 6.47988 14.3998C7.9651 14.3998 9.38948 14.9898 10.4397 16.04C11.4899 17.0902 12.0799 18.5146 12.0799 19.9998V22.3998C12.0799 22.8242 11.9113 23.2311 11.6113 23.5312C11.3112 23.8312 10.9042 23.9998 10.4799 23.9998C10.0555 23.9998 9.64857 23.8312 9.34851 23.5312C9.04845 23.2311 8.87988 22.8242 8.87988 22.3998V19.9998C8.87988 19.3633 8.62703 18.7528 8.17694 18.3027C7.72685 17.8527 7.1164 17.5998 6.47988 17.5998ZM25.5999 13.1998C25.1755 13.1998 24.7686 13.0312 24.4685 12.7312C24.1685 12.4311 23.9999 12.0242 23.9999 11.5998C23.9999 11.1755 24.1685 10.7685 24.4685 10.4684C24.7686 10.1684 25.1755 9.9998 25.5999 9.9998C26.0242 9.9998 26.4312 10.1684 26.7313 10.4684C27.0313 10.7685 27.1999 11.1755 27.1999 11.5998C27.1999 12.0242 27.0313 12.4311 26.7313 12.7312C26.4312 13.0312 26.0242 13.1998 25.5999 13.1998ZM25.5999 16.3998C24.3268 16.3998 23.1059 15.8941 22.2058 14.9939C21.3056 14.0937 20.7999 12.8728 20.7999 11.5998C20.7999 10.3268 21.3056 9.10587 22.2058 8.20569C23.1059 7.30552 24.3268 6.7998 25.5999 6.7998C26.8729 6.7998 28.0938 7.30552 28.994 8.20569C29.8942 9.10587 30.3999 10.3268 30.3999 11.5998C30.3999 12.8728 29.8942 14.0937 28.994 14.9939C28.0938 15.8941 26.8729 16.3998 25.5999 16.3998Z" fill="black" fill-opacity="0.7"/>
<path fill-rule="evenodd" clip-rule="evenodd" d="M25.5199 17.5994C26.1564 17.5994 26.7669 17.8523 27.217 18.3024C27.6671 18.7524 27.9199 19.3629 27.9199 19.9994V22.3994C27.9199 22.8238 28.0885 23.2307 28.3886 23.5308C28.6886 23.8308 29.0956 23.9994 29.5199 23.9994C29.9443 23.9994 30.3512 23.8308 30.6513 23.5308C30.9514 23.2307 31.1199 22.8238 31.1199 22.3994V19.9994C31.1199 18.5142 30.5299 17.0898 29.4797 16.0396C28.4295 14.9894 27.0051 14.3994 25.5199 14.3994C24.0347 14.3994 22.6103 14.9894 21.5601 16.0396C20.5099 17.0898 19.9199 18.5142 19.9199 19.9994V22.3994C19.9199 22.8238 20.0885 23.2307 20.3886 23.5308C20.6886 23.8308 21.0956 23.9994 21.5199 23.9994C21.9443 23.9994 22.3512 23.8308 22.6513 23.5308C22.9514 23.2307 23.1199 22.8238 23.1199 22.3994V19.9994C23.1199 19.3629 23.3728 18.7524 23.8229 18.3024C24.273 17.8523 24.8834 17.5994 25.5199 17.5994Z" fill="black" fill-opacity="0.7"/>
<path fill-rule="evenodd" clip-rule="evenodd" d="M16.0799 21.9998C15.019 21.9998 14.0016 22.4212 13.2515 23.1714C12.5013 23.9215 12.0799 24.9389 12.0799 25.9998V28.3998C12.0799 28.8242 11.9113 29.2311 11.6113 29.5312C11.3112 29.8312 10.9042 29.9998 10.4799 29.9998C10.0555 29.9998 9.64857 29.8312 9.34851 29.5312C9.04845 29.2311 8.87988 28.8242 8.87988 28.3998V25.9998C8.87988 24.0902 9.63845 22.2589 10.9887 20.9086C12.339 19.5584 14.1703 18.7998 16.0799 18.7998C17.9894 18.7998 19.8208 19.5584 21.1711 20.9086C22.5213 22.2589 23.2799 24.0902 23.2799 25.9998V28.3998C23.2799 28.8242 23.1113 29.2311 22.8113 29.5312C22.5112 29.8312 22.1042 29.9998 21.6799 29.9998C21.2555 29.9998 20.8486 29.8312 20.5485 29.5312C20.2485 29.2311 20.0799 28.8242 20.0799 28.3998V25.9998C20.0799 24.9389 19.6585 23.9215 18.9083 23.1714C18.1582 22.4212 17.1407 21.9998 16.0799 21.9998Z" fill="black" fill-opacity="0.7"/>
<path fill-rule="evenodd" clip-rule="evenodd" d="M15.9997 17.6002C16.4241 17.6002 16.831 17.4316 17.1311 17.1316C17.4311 16.8315 17.5997 16.4245 17.5997 16.0002C17.5997 15.5758 17.4311 15.1689 17.1311 14.8688C16.831 14.5688 16.4241 14.4002 15.9997 14.4002C15.5754 14.4002 15.1684 14.5688 14.8683 14.8688C14.5683 15.1689 14.3997 15.5758 14.3997 16.0002C14.3997 16.4245 14.5683 16.8315 14.8683 17.1316C15.1684 17.4316 15.5754 17.6002 15.9997 17.6002ZM15.9997 20.8002C17.2727 20.8002 18.4936 20.2945 19.3938 19.3943C20.294 18.4941 20.7997 17.2732 20.7997 16.0002C20.7997 14.7272 20.294 13.5063 19.3938 12.6061C18.4936 11.7059 17.2727 11.2002 15.9997 11.2002C14.7267 11.2002 13.5058 11.7059 12.6056 12.6061C11.7054 13.5063 11.1997 14.7272 11.1997 16.0002C11.1997 17.2732 11.7054 18.4941 12.6056 19.3943C13.5058 20.2945 14.7267 20.8002 15.9997 20.8002Z" fill="black" fill-opacity="0.7"/>
</svg>
